# xmcd
#
# Track frame offsets:
#	150
#	16422
#	35862
#	47500
#	62147
#	80395
#	92198
#	106332
#	123131
#	133985
#	149097
#
# Disc length: 2190 seconds
#
# Revision: 0
# Processed by: cddbd v1.5.2PL0 Copyright (c) Steve Scherf et al.
# Submitted via: dBpowerAMP V4.0
#
DISCID=9d088c0b
DTITLE=Amy Winehouse - Back to Black
DYEAR=2007
DGENRE=R&B
TTITLE0=Rehab
TTITLE1=You Know I'm No Good
TTITLE2=Me and Mr. Jones
TTITLE3=Just Friends
TTITLE4=Back To Black
TTITLE5=Love Is A Losing Game
TTITLE6=Tears Dry On Their Own
TTITLE7=Wake Up Alone
TTITLE8=Some Unholy War
TTITLE9=He Can Only Hold Her
TTITLE10=You Know I'm No Good [Remix Feat. Ghostface Killah]
EXTD=
EXTT0=
EXTT1=
EXTT2=
EXTT3=
EXTT4=
EXTT5=
EXTT6=
EXTT7=
EXTT8=
EXTT9=
EXTT10=
PLAYORDER=
